<mxfile host="app.diagrams.net" modified="2023-05-24T17:54:49.943Z" agent="Mozilla/5.0 (Windows NT 10.0; Win64; x64) AppleWebKit/537.36 (KHTML, like Gecko) Chrome/113.0.0.0 Safari/537.36" etag="JIW357q6lk8AgOTi8BXc" version="21.2.9" type="device">
  <diagram id="zkdOYTn5vW0a3zdd7zKN" name="페이지-2">
    <mxGraphModel dx="1434" dy="1908" grid="1" gridSize="10" guides="1" tooltips="1" connect="1" arrows="1" fold="1" page="1" pageScale="1" pageWidth="827" pageHeight="1169" math="0" shadow="0">
      <root>
        <mxCell id="0" />
        <mxCell id="1" parent="0" />
        <mxCell id="NG4u67nRFbZLVWhVFrk5-1" value="" style="rounded=0;whiteSpace=wrap;html=1;" parent="1" vertex="1">
          <mxGeometry x="150" y="-380" width="700" height="860" as="geometry" />
        </mxCell>
        <mxCell id="TFM604kP1vKxrepBITnh-19" value="" style="rounded=0;whiteSpace=wrap;html=1;" parent="1" vertex="1">
          <mxGeometry x="355" y="200" width="300" height="263.5" as="geometry" />
        </mxCell>
        <mxCell id="TFM604kP1vKxrepBITnh-17" value="" style="rounded=0;whiteSpace=wrap;html=1;" parent="1" vertex="1">
          <mxGeometry x="180" y="-60" width="650" height="240" as="geometry" />
        </mxCell>
        <mxCell id="TFM604kP1vKxrepBITnh-15" value="" style="rounded=0;whiteSpace=wrap;html=1;" parent="1" vertex="1">
          <mxGeometry x="394" y="-370" width="120" height="280" as="geometry" />
        </mxCell>
        <mxCell id="FRXnbz1p3JDmP8_7-DGu-1" value="사용자" style="shape=umlActor;verticalLabelPosition=bottom;verticalAlign=top;html=1;" parent="1" vertex="1">
          <mxGeometry x="90" y="-310" width="30" height="60" as="geometry" />
        </mxCell>
        <mxCell id="FRXnbz1p3JDmP8_7-DGu-9" value="&lt;font style=&quot;font-size: 12px;&quot;&gt;회원가입&lt;/font&gt;" style="ellipse;whiteSpace=wrap;html=1;" parent="1" vertex="1">
          <mxGeometry x="414" y="-310" width="80" height="40" as="geometry" />
        </mxCell>
        <mxCell id="Z6H-5D1DCtQ5bn0lpksQ-1" value="" style="endArrow=none;html=1;rounded=0;exitX=1;exitY=0.3333333333333333;exitDx=0;exitDy=0;exitPerimeter=0;entryX=0;entryY=0.5;entryDx=0;entryDy=0;" parent="1" source="FRXnbz1p3JDmP8_7-DGu-1" target="FRXnbz1p3JDmP8_7-DGu-9" edge="1">
          <mxGeometry width="50" height="50" relative="1" as="geometry">
            <mxPoint x="390" y="390" as="sourcePoint" />
            <mxPoint x="440" y="340" as="targetPoint" />
          </mxGeometry>
        </mxCell>
        <mxCell id="Z6H-5D1DCtQ5bn0lpksQ-51" value="회사 회원" style="shape=umlActor;verticalLabelPosition=bottom;verticalAlign=top;html=1;outlineConnect=0;" parent="1" vertex="1">
          <mxGeometry x="70" y="15" width="30" height="60" as="geometry" />
        </mxCell>
        <mxCell id="Z6H-5D1DCtQ5bn0lpksQ-52" value="&lt;font style=&quot;font-size: 12px;&quot;&gt;채용 정보 등록&lt;/font&gt;" style="ellipse;whiteSpace=wrap;html=1;" parent="1" vertex="1">
          <mxGeometry x="230" y="-30" width="110" height="60" as="geometry" />
        </mxCell>
        <mxCell id="Z6H-5D1DCtQ5bn0lpksQ-55" value="" style="endArrow=none;html=1;rounded=0;entryX=0;entryY=0.5;entryDx=0;entryDy=0;exitX=1;exitY=0.3333333333333333;exitDx=0;exitDy=0;exitPerimeter=0;" parent="1" source="Z6H-5D1DCtQ5bn0lpksQ-51" target="Z6H-5D1DCtQ5bn0lpksQ-52" edge="1">
          <mxGeometry width="50" height="50" relative="1" as="geometry">
            <mxPoint x="130" y="210" as="sourcePoint" />
            <mxPoint x="160" y="160" as="targetPoint" />
          </mxGeometry>
        </mxCell>
        <mxCell id="Z6H-5D1DCtQ5bn0lpksQ-57" value="&lt;font style=&quot;font-size: 12px;&quot;&gt;채용 정보 리스트 조회&lt;/font&gt;" style="ellipse;whiteSpace=wrap;html=1;" parent="1" vertex="1">
          <mxGeometry x="230" y="75" width="120" height="60" as="geometry" />
        </mxCell>
        <mxCell id="Z6H-5D1DCtQ5bn0lpksQ-59" value="" style="endArrow=none;html=1;rounded=0;exitX=1;exitY=0.3333333333333333;exitDx=0;exitDy=0;exitPerimeter=0;entryX=0;entryY=0.5;entryDx=0;entryDy=0;" parent="1" source="Z6H-5D1DCtQ5bn0lpksQ-51" target="Z6H-5D1DCtQ5bn0lpksQ-57" edge="1">
          <mxGeometry width="50" height="50" relative="1" as="geometry">
            <mxPoint x="120" y="220" as="sourcePoint" />
            <mxPoint x="190" y="200" as="targetPoint" />
          </mxGeometry>
        </mxCell>
        <mxCell id="Z6H-5D1DCtQ5bn0lpksQ-70" value="일반 회원" style="shape=umlActor;verticalLabelPosition=bottom;verticalAlign=top;html=1;outlineConnect=0;" parent="1" vertex="1">
          <mxGeometry x="870" y="15" width="30" height="60" as="geometry" />
        </mxCell>
        <mxCell id="Z6H-5D1DCtQ5bn0lpksQ-73" value="&lt;font style=&quot;font-size: 12px;&quot;&gt;회사 이름 검색&lt;/font&gt;" style="ellipse;whiteSpace=wrap;html=1;" parent="1" vertex="1">
          <mxGeometry x="600" y="80" width="118" height="50" as="geometry" />
        </mxCell>
        <mxCell id="Z6H-5D1DCtQ5bn0lpksQ-74" value="" style="endArrow=none;html=1;rounded=0;entryX=1;entryY=0.5;entryDx=0;entryDy=0;exitX=0;exitY=0.3333333333333333;exitDx=0;exitDy=0;exitPerimeter=0;" parent="1" source="Z6H-5D1DCtQ5bn0lpksQ-70" target="Z6H-5D1DCtQ5bn0lpksQ-73" edge="1">
          <mxGeometry width="50" height="50" relative="1" as="geometry">
            <mxPoint x="460" y="580" as="sourcePoint" />
            <mxPoint x="510" y="530" as="targetPoint" />
          </mxGeometry>
        </mxCell>
        <mxCell id="Z6H-5D1DCtQ5bn0lpksQ-77" value="&lt;span style=&quot;color: rgb(0, 0, 0); font-family: Helvetica; font-style: normal; font-variant-ligatures: normal; font-variant-caps: normal; font-weight: 400; letter-spacing: normal; orphans: 2; text-align: center; text-indent: 0px; text-transform: none; widows: 2; word-spacing: 0px; -webkit-text-stroke-width: 0px; background-color: rgb(251, 251, 251); text-decoration-thickness: initial; text-decoration-style: initial; text-decoration-color: initial; float: none; display: inline !important;&quot;&gt;&lt;font style=&quot;font-size: 12px;&quot;&gt;지원&lt;/font&gt;&lt;/span&gt;" style="ellipse;whiteSpace=wrap;html=1;" parent="1" vertex="1">
          <mxGeometry x="600" y="-25" width="120" height="50" as="geometry" />
        </mxCell>
        <mxCell id="Z6H-5D1DCtQ5bn0lpksQ-78" value="" style="endArrow=none;html=1;rounded=0;entryX=1;entryY=0.5;entryDx=0;entryDy=0;exitX=0;exitY=0.3333333333333333;exitDx=0;exitDy=0;exitPerimeter=0;" parent="1" source="Z6H-5D1DCtQ5bn0lpksQ-70" target="Z6H-5D1DCtQ5bn0lpksQ-77" edge="1">
          <mxGeometry width="50" height="50" relative="1" as="geometry">
            <mxPoint x="465" y="580" as="sourcePoint" />
            <mxPoint x="885" y="570" as="targetPoint" />
          </mxGeometry>
        </mxCell>
        <mxCell id="Z6H-5D1DCtQ5bn0lpksQ-93" value="지원정보조회" style="ellipse;whiteSpace=wrap;html=1;" parent="1" vertex="1">
          <mxGeometry x="516.25" y="230" width="100" height="40" as="geometry" />
        </mxCell>
        <mxCell id="Z6H-5D1DCtQ5bn0lpksQ-94" value="" style="endArrow=none;html=1;rounded=0;entryX=1;entryY=0.5;entryDx=0;entryDy=0;exitX=0;exitY=0.3333333333333333;exitDx=0;exitDy=0;exitPerimeter=0;" parent="1" source="Z6H-5D1DCtQ5bn0lpksQ-70" target="Z6H-5D1DCtQ5bn0lpksQ-93" edge="1">
          <mxGeometry width="50" height="50" relative="1" as="geometry">
            <mxPoint x="270" y="530" as="sourcePoint" />
            <mxPoint x="650" y="560" as="targetPoint" />
          </mxGeometry>
        </mxCell>
        <mxCell id="Z6H-5D1DCtQ5bn0lpksQ-98" value="지원 취소" style="ellipse;whiteSpace=wrap;html=1;" parent="1" vertex="1">
          <mxGeometry x="500" y="290" width="132.5" height="40" as="geometry" />
        </mxCell>
        <mxCell id="Z6H-5D1DCtQ5bn0lpksQ-101" value="업무별 지원 통계 보기" style="ellipse;whiteSpace=wrap;html=1;" parent="1" vertex="1">
          <mxGeometry x="505" y="350" width="122.5" height="50" as="geometry" />
        </mxCell>
        <mxCell id="Z6H-5D1DCtQ5bn0lpksQ-105" value="" style="endArrow=none;html=1;rounded=0;exitX=0;exitY=0.3333333333333333;exitDx=0;exitDy=0;exitPerimeter=0;entryX=1;entryY=0.5;entryDx=0;entryDy=0;" parent="1" source="Z6H-5D1DCtQ5bn0lpksQ-70" target="Z6H-5D1DCtQ5bn0lpksQ-101" edge="1">
          <mxGeometry width="50" height="50" relative="1" as="geometry">
            <mxPoint x="570" y="640" as="sourcePoint" />
            <mxPoint x="620" y="590" as="targetPoint" />
          </mxGeometry>
        </mxCell>
        <mxCell id="Z6H-5D1DCtQ5bn0lpksQ-107" value="" style="endArrow=none;html=1;rounded=0;entryX=1;entryY=0;entryDx=0;entryDy=0;exitX=0;exitY=0.3333333333333333;exitDx=0;exitDy=0;exitPerimeter=0;" parent="1" source="Z6H-5D1DCtQ5bn0lpksQ-70" target="Z6H-5D1DCtQ5bn0lpksQ-98" edge="1">
          <mxGeometry width="50" height="50" relative="1" as="geometry">
            <mxPoint x="260" y="520" as="sourcePoint" />
            <mxPoint x="530" y="590" as="targetPoint" />
          </mxGeometry>
        </mxCell>
        <mxCell id="Z6H-5D1DCtQ5bn0lpksQ-117" value="지원자 통계 정보 조회" style="ellipse;whiteSpace=wrap;html=1;" parent="1" vertex="1">
          <mxGeometry x="376.5" y="270" width="120" height="53" as="geometry" />
        </mxCell>
        <mxCell id="TFM604kP1vKxrepBITnh-2" value="회원" style="shape=umlActor;verticalLabelPosition=bottom;verticalAlign=top;html=1;" parent="1" vertex="1">
          <mxGeometry x="100" y="-170" width="30" height="60" as="geometry" />
        </mxCell>
        <mxCell id="TFM604kP1vKxrepBITnh-4" value="" style="endArrow=block;html=1;rounded=0;align=center;verticalAlign=bottom;endFill=0;labelBackgroundColor=none;endSize=8;exitX=0.5;exitY=0;exitDx=0;exitDy=0;exitPerimeter=0;entryX=0;entryY=0.3333333333333333;entryDx=0;entryDy=0;entryPerimeter=0;" parent="1" source="Z6H-5D1DCtQ5bn0lpksQ-51" target="TFM604kP1vKxrepBITnh-2" edge="1">
          <mxGeometry x="1" y="142" relative="1" as="geometry">
            <mxPoint x="50" y="370" as="sourcePoint" />
            <mxPoint x="90" y="-100" as="targetPoint" />
            <mxPoint x="110" y="52" as="offset" />
            <Array as="points">
              <mxPoint x="85" y="-150" />
            </Array>
          </mxGeometry>
        </mxCell>
        <mxCell id="TFM604kP1vKxrepBITnh-6" value="" style="endArrow=block;html=1;rounded=0;align=center;verticalAlign=bottom;endFill=0;labelBackgroundColor=none;endSize=8;exitX=0.5;exitY=0;exitDx=0;exitDy=0;exitPerimeter=0;entryX=0.5;entryY=0.5;entryDx=0;entryDy=0;entryPerimeter=0;" parent="1" source="Z6H-5D1DCtQ5bn0lpksQ-70" target="TFM604kP1vKxrepBITnh-2" edge="1">
          <mxGeometry x="1" y="142" relative="1" as="geometry">
            <mxPoint x="95" y="270" as="sourcePoint" />
            <mxPoint x="290" y="-140" as="targetPoint" />
            <mxPoint x="110" y="52" as="offset" />
            <Array as="points">
              <mxPoint x="885" y="-80" />
              <mxPoint x="200" y="-80" />
            </Array>
          </mxGeometry>
        </mxCell>
        <mxCell id="TFM604kP1vKxrepBITnh-7" value="" style="endArrow=none;html=1;rounded=0;exitX=1;exitY=0.3333333333333333;exitDx=0;exitDy=0;exitPerimeter=0;entryX=0;entryY=0.5;entryDx=0;entryDy=0;" parent="1" source="TFM604kP1vKxrepBITnh-2" target="TFM604kP1vKxrepBITnh-9" edge="1">
          <mxGeometry width="50" height="50" relative="1" as="geometry">
            <mxPoint x="340" y="-150" as="sourcePoint" />
            <mxPoint x="410" y="-220" as="targetPoint" />
          </mxGeometry>
        </mxCell>
        <mxCell id="TFM604kP1vKxrepBITnh-9" value="로그인" style="ellipse;whiteSpace=wrap;html=1;" parent="1" vertex="1">
          <mxGeometry x="411.5" y="-250" width="85" height="40" as="geometry" />
        </mxCell>
        <mxCell id="TFM604kP1vKxrepBITnh-10" value="로그아웃" style="ellipse;whiteSpace=wrap;html=1;" parent="1" vertex="1">
          <mxGeometry x="411.5" y="-200" width="85" height="40" as="geometry" />
        </mxCell>
        <mxCell id="TFM604kP1vKxrepBITnh-11" value="회원탈퇴" style="ellipse;whiteSpace=wrap;html=1;" parent="1" vertex="1">
          <mxGeometry x="411.5" y="-140" width="85" height="40" as="geometry" />
        </mxCell>
        <mxCell id="TFM604kP1vKxrepBITnh-12" value="" style="endArrow=none;html=1;rounded=0;exitX=1;exitY=0.3333333333333333;exitDx=0;exitDy=0;exitPerimeter=0;entryX=0;entryY=0.5;entryDx=0;entryDy=0;" parent="1" source="TFM604kP1vKxrepBITnh-2" target="TFM604kP1vKxrepBITnh-10" edge="1">
          <mxGeometry width="50" height="50" relative="1" as="geometry">
            <mxPoint x="320" y="-140" as="sourcePoint" />
            <mxPoint x="422" y="-220" as="targetPoint" />
          </mxGeometry>
        </mxCell>
        <mxCell id="TFM604kP1vKxrepBITnh-13" value="" style="endArrow=none;html=1;rounded=0;exitX=1;exitY=0.3333333333333333;exitDx=0;exitDy=0;exitPerimeter=0;entryX=0;entryY=0.5;entryDx=0;entryDy=0;" parent="1" source="TFM604kP1vKxrepBITnh-2" target="TFM604kP1vKxrepBITnh-11" edge="1">
          <mxGeometry width="50" height="50" relative="1" as="geometry">
            <mxPoint x="330" y="-130" as="sourcePoint" />
            <mxPoint x="432" y="-210" as="targetPoint" />
          </mxGeometry>
        </mxCell>
        <mxCell id="TFM604kP1vKxrepBITnh-16" value="&lt;font style=&quot;font-size: 14px;&quot;&gt;회원 관리 시스템&lt;/font&gt;" style="text;html=1;strokeColor=none;fillColor=none;align=center;verticalAlign=middle;whiteSpace=wrap;rounded=0;" parent="1" vertex="1">
          <mxGeometry x="424" y="-360" width="66" height="30" as="geometry" />
        </mxCell>
        <mxCell id="TFM604kP1vKxrepBITnh-18" value="&lt;font style=&quot;font-size: 14px;&quot;&gt;채용 관리 &lt;br&gt;시스템&lt;/font&gt;" style="text;html=1;strokeColor=none;fillColor=none;align=center;verticalAlign=middle;whiteSpace=wrap;rounded=0;" parent="1" vertex="1">
          <mxGeometry x="350" y="-40" width="100" height="30" as="geometry" />
        </mxCell>
        <mxCell id="TFM604kP1vKxrepBITnh-20" value="&lt;font style=&quot;font-size: 14px;&quot;&gt;지원 관리 &lt;br&gt;시스템&lt;/font&gt;" style="text;html=1;strokeColor=none;fillColor=none;align=center;verticalAlign=middle;whiteSpace=wrap;rounded=0;" parent="1" vertex="1">
          <mxGeometry x="360" y="210" width="86" height="30" as="geometry" />
        </mxCell>
        <mxCell id="NG4u67nRFbZLVWhVFrk5-2" value="&lt;font style=&quot;font-size: 16px;&quot;&gt;채용 정보 &lt;br&gt;관리 시스템&lt;/font&gt;" style="text;html=1;strokeColor=none;fillColor=none;align=center;verticalAlign=middle;whiteSpace=wrap;rounded=0;" parent="1" vertex="1">
          <mxGeometry x="160" y="-370" width="110" height="30" as="geometry" />
        </mxCell>
        <mxCell id="NG4u67nRFbZLVWhVFrk5-9" style="edgeStyle=orthogonalEdgeStyle;rounded=0;orthogonalLoop=1;jettySize=auto;html=1;exitX=0.5;exitY=1;exitDx=0;exitDy=0;" parent="1" source="TFM604kP1vKxrepBITnh-19" target="TFM604kP1vKxrepBITnh-19" edge="1">
          <mxGeometry relative="1" as="geometry" />
        </mxCell>
        <mxCell id="ijLZEOS8sPfE2jElc4cu-3" value="" style="endArrow=none;html=1;rounded=0;exitX=1;exitY=0.3333333333333333;exitDx=0;exitDy=0;exitPerimeter=0;entryX=0;entryY=0.5;entryDx=0;entryDy=0;" edge="1" parent="1" source="Z6H-5D1DCtQ5bn0lpksQ-51" target="Z6H-5D1DCtQ5bn0lpksQ-117">
          <mxGeometry width="50" height="50" relative="1" as="geometry">
            <mxPoint x="700" y="320" as="sourcePoint" />
            <mxPoint x="750" y="270" as="targetPoint" />
          </mxGeometry>
        </mxCell>
      </root>
    </mxGraphModel>
  </diagram>
</mxfile>
